<svg width="66" height="66" viewBox="0 0 66 66" fill="none" xmlns="http://www.w3.org/2000/svg">
<path d="M66 33C66 51.2254 51.2254 66 33 66C14.7746 66 0 51.2254 0 33C0 14.7746 14.7746 0 33 0C51.2254 0 66 14.7746 66 33Z" fill="#52FFA8"/>
<path d="M41 21H25C23.9395 21.0013 22.9229 21.4232 22.173 22.173C21.4232 22.9229 21.0013 23.9395 21 25V41C21.0013 42.0605 21.4232 43.0771 22.173 43.827C22.9229 44.5768 23.9395 44.9987 25 45H41C42.0605 44.9987 43.0771 44.5768 43.827 43.827C44.5768 43.0771 44.9987 42.0605 45 41V25C44.9987 23.9395 44.5768 22.9229 43.827 22.173C43.0771 21.4232 42.0605 21.0013 41 21ZM28.5 39C28.1022 39 27.7206 38.842 27.4393 38.5607C27.158 38.2794 27 37.8978 27 37.5C27 37.1022 27.158 36.7206 27.4393 36.4393C27.7206 36.158 28.1022 36 28.5 36C28.8978 36 29.2794 36.158 29.5607 36.4393C29.842 36.7206 30 37.1022 30 37.5C30 37.8978 29.842 38.2794 29.5607 38.5607C29.2794 38.842 28.8978 39 28.5 39ZM28.5 30C28.1022 30 27.7206 29.842 27.4393 29.5607C27.158 29.2794 27 28.8978 27 28.5C27 28.1022 27.158 27.7206 27.4393 27.4393C27.7206 27.158 28.1022 27 28.5 27C28.8978 27 29.2794 27.158 29.5607 27.4393C29.842 27.7206 30 28.1022 30 28.5C30 28.8978 29.842 29.2794 29.5607 29.5607C29.2794 29.842 28.8978 30 28.5 30ZM33 34.5C32.6022 34.5 32.2206 34.342 31.9393 34.0607C31.658 33.7794 31.5 33.3978 31.5 33C31.5 32.6022 31.658 32.2206 31.9393 31.9393C32.2206 31.658 32.6022 31.5 33 31.5C33.3978 31.5 33.7794 31.658 34.0607 31.9393C34.342 32.2206 34.5 32.6022 34.5 33C34.5 33.3978 34.342 33.7794 34.0607 34.0607C33.7794 34.342 33.3978 34.5 33 34.5ZM37.5 39C37.1022 39 36.7206 38.842 36.4393 38.5607C36.158 38.2794 36 37.8978 36 37.5C36 37.1022 36.158 36.7206 36.4393 36.4393C36.7206 36.158 37.1022 36 37.5 36C37.8978 36 38.2794 36.158 38.5607 36.4393C38.842 36.7206 39 37.1022 39 37.5C39 37.8978 38.842 38.2794 38.5607 38.5607C38.2794 38.842 37.8978 39 37.5 39ZM37.5 30C37.1022 30 36.7206 29.842 36.4393 29.5607C36.158 29.2794 36 28.8978 36 28.5C36 28.1022 36.158 27.7206 36.4393 27.4393C36.7206 27.158 37.1022 27 37.5 27C37.8978 27 38.2794 27.158 38.5607 27.4393C38.842 27.7206 39 28.1022 39 28.5C39 28.8978 38.842 29.2794 38.5607 29.5607C38.2794 29.842 37.8978 30 37.5 30Z" fill="#202733"/>
</svg>
